<?xml version="1.0" encoding="UTF-8"?>
<svg version="1.1" xmlns="http://www.w3.org/2000/svg" width="2000" height="1500">
<path d="M0 0 C660 0 1320 0 2000 0 C2000 495 2000 990 2000 1500 C1340 1500 680 1500 0 1500 C0 1005 0 510 0 0 Z " fill="#FFFFFF" transform="translate(0,0)"/>
<path d="M0 0 C318.78 0 637.56 0 966 0 C966 318.78 966 637.56 966 966 C647.22 966 328.44 966 0 966 C0 647.22 0 328.44 0 0 Z " fill="#FFFEFE" transform="translate(517,267)"/>
<path d="M0 0 C318.78 0 637.56 0 966 0 C966 318.78 966 637.56 966 966 C647.22 966 328.44 966 0 966 C0 647.22 0 328.44 0 0 Z M82 82 C82 307.72 82 533.44 82 766 C307.72 766 533.44 766 766 766 C766 540.28 766 314.56 766 82 C540.28 82 314.56 82 82 82 Z " fill="#FF1B0F" transform="translate(517,267)"/>
</svg>
